<svg width="37" height="36" viewBox="0 0 37 36" fill="none" xmlns="http://www.w3.org/2000/svg">
<g clip-path="url(#clip0)">
<path d="M36.1018 18C36.1018 27.941 28.0305 36 18.0743 36C8.11916 36 0.046875 27.941 0.046875 18C0.046875 8.06 8.11916 0 18.0743 0C28.0305 0 36.1018 8.06 36.1018 18Z" fill="#FFCC4D"/>
<path d="M11.5644 20C12.9472 20 14.0682 18.433 14.0682 16.5C14.0682 14.567 12.9472 13 11.5644 13C10.1815 13 9.06055 14.567 9.06055 16.5C9.06055 18.433 10.1815 20 11.5644 20Z" fill="#664500"/>
<path d="M24.5839 20C25.9667 20 27.0877 18.433 27.0877 16.5C27.0877 14.567 25.9667 13 24.5839 13C23.2011 13 22.0801 14.567 22.0801 16.5C22.0801 18.433 23.2011 20 24.5839 20Z" fill="#664500"/>
<path d="M12.0654 28.0005C14.0685 23.0005 25.0852 23.0005 25.0852 25.0005C25.0852 26.0005 17.0731 24.0005 12.0654 28.0005Z" fill="#664500"/>
</g>
<defs>
<clipPath id="clip0">
<rect width="36.0549" height="36" fill="white" transform="translate(0.046875)"/>
</clipPath>
</defs>
</svg>
