<svg width="37" height="36" viewBox="0 0 37 36" fill="none" xmlns="http://www.w3.org/2000/svg">
<path d="M21.0811 27C20.2842 27 19.52 26.6839 18.9565 26.1213C18.3931 25.5587 18.0765 24.7956 18.0765 24V20C18.0765 19.2044 18.3931 18.4413 18.9565 17.8787C19.52 17.3161 20.2842 17 21.0811 17C21.685 16.994 27.0903 16 27.0903 12C27.0903 10 25.0872 8 22.0826 8C19.6379 8 18.0765 10 18.0765 11C18.0765 11.7956 17.76 12.5587 17.1965 13.1213C16.633 13.6839 15.8688 14 15.072 14C14.2751 14 13.5109 13.6839 12.9474 13.1213C12.3839 12.5587 12.0674 11.7956 12.0674 11C12.0674 6.122 16.6544 2 22.0826 2C30.0948 2 33.0994 7.982 33.0994 13C33.0994 17.145 30.8189 20.313 26.6766 21.92C25.7752 22.271 24.8839 22.507 24.0857 22.667V24C24.0857 24.7956 23.7691 25.5587 23.2057 26.1213C22.6422 26.6839 21.878 27 21.0811 27Z" fill="#FFAD3B"/>
<path d="M21.0807 35C22.7401 35 24.0853 33.6569 24.0853 32C24.0853 30.3431 22.7401 29 21.0807 29C19.4214 29 18.0762 30.3431 18.0762 32C18.0762 33.6569 19.4214 35 21.0807 35Z" fill="#FFAD3B"/>
<path d="M6.05828 35C7.71766 35 9.06286 33.6569 9.06286 32C9.06286 30.3431 7.71766 29 6.05828 29C4.3989 29 3.05371 30.3431 3.05371 32C3.05371 33.6569 4.3989 35 6.05828 35Z" fill="#FFAD3B"/>
<path d="M9.06286 24C9.06286 24.7956 8.7463 25.5587 8.18284 26.1213C7.61937 26.6839 6.85515 27 6.05828 27C5.26142 27 4.4972 26.6839 3.93373 26.1213C3.37026 25.5587 3.05371 24.7956 3.05371 24V5C3.05371 4.20435 3.37026 3.44129 3.93373 2.87868C4.4972 2.31607 5.26142 2 6.05828 2C6.85515 2 7.61937 2.31607 8.18284 2.87868C8.7463 3.44129 9.06286 4.20435 9.06286 5V24Z" fill="#FFAD3B"/>
</svg>
