<svg width="51" height="50" viewBox="0 0 51 50" fill="none" xmlns="http://www.w3.org/2000/svg">
<path d="M25.3309 0.293945C20.4445 0.293945 15.6679 1.74292 11.605 4.45764C7.54218 7.17235 4.37556 11.0309 2.50563 15.5453C0.635705 20.0597 0.146446 25.0272 1.09973 29.8197C2.05301 34.6122 4.40602 39.0143 7.8612 42.4695C11.3164 45.9247 15.7185 48.2777 20.511 49.231C25.3035 50.1843 30.271 49.695 34.7854 47.8251C39.2998 45.9551 43.1584 42.7885 45.8731 38.7257C48.5878 34.6628 50.0368 29.8862 50.0368 24.9998C50.0301 18.4495 47.425 12.1693 42.7932 7.53754C38.1614 2.90574 31.8812 0.300653 25.3309 0.293945ZM38.0006 18.589L22.5436 34.0967C22.1875 34.4532 21.7044 34.6537 21.2006 34.6541C20.6978 34.6483 20.2167 34.4486 19.8576 34.0967L12.6612 26.8243C12.3053 26.4679 12.1054 25.9849 12.1054 25.4813C12.1054 24.9776 12.3053 24.4946 12.6612 24.1383C12.8359 23.959 13.0447 23.8165 13.2754 23.7192C13.5061 23.6219 13.7539 23.5718 14.0042 23.5718C14.2545 23.5718 14.5023 23.6219 14.733 23.7192C14.9636 23.8165 15.1725 23.959 15.3472 24.1383L21.2006 30.0677L35.4666 15.903C35.6413 15.7237 35.8502 15.5812 36.0808 15.4839C36.3115 15.3866 36.5593 15.3365 36.8096 15.3365C37.06 15.3365 37.3078 15.3866 37.5384 15.4839C37.7691 15.5812 37.9779 15.7237 38.1526 15.903C38.3192 16.0892 38.4475 16.3065 38.53 16.5423C38.6125 16.7782 38.6478 17.028 38.6336 17.2775C38.6195 17.527 38.5563 17.7712 38.4477 17.9963C38.3391 18.2213 38.1871 18.4227 38.0006 18.589Z" fill="#08BD80"/>
</svg>
