<svg width="50" height="50" viewBox="0 0 50 50" fill="none" xmlns="http://www.w3.org/2000/svg">
<path d="M25 0.625C20.1791 0.625 15.4664 2.05457 11.458 4.73293C7.44954 7.41129 4.32533 11.2181 2.48045 15.6721C0.635561 20.126 0.152855 25.027 1.09337 29.7553C2.03388 34.4836 4.35538 38.8268 7.76428 42.2357C11.1732 45.6446 15.5164 47.9661 20.2447 48.9066C24.973 49.8472 29.874 49.3645 34.3279 47.5196C38.7819 45.6747 42.5887 42.5505 45.2671 38.542C47.9454 34.5336 49.375 29.8209 49.375 25C49.3684 18.5374 46.7982 12.3413 42.2284 7.77158C37.6587 3.20182 31.4626 0.631618 25 0.625ZM33.4 30.75C33.7511 31.1016 33.9484 31.5781 33.9484 32.075C33.9484 32.5719 33.7511 33.0484 33.4 33.4C33.0429 33.7429 32.57 33.9392 32.075 33.95C31.579 33.9442 31.1043 33.7472 30.75 33.4L25 27.65L19.25 33.4C18.8957 33.7472 18.421 33.9442 17.925 33.95C17.43 33.9392 16.9571 33.7429 16.6 33.4C16.2489 33.0484 16.0517 32.5719 16.0517 32.075C16.0517 31.5781 16.2489 31.1016 16.6 30.75L22.35 25L16.6 19.25C16.2688 18.8946 16.0885 18.4244 16.0971 17.9387C16.1056 17.4529 16.3024 16.9895 16.646 16.6459C16.9895 16.3024 17.453 16.1056 17.9387 16.0971C18.4245 16.0885 18.8946 16.2688 19.25 16.6L25 22.35L30.75 16.6C31.1054 16.2688 31.5756 16.0885 32.0613 16.0971C32.5471 16.1056 33.0105 16.3024 33.3541 16.6459C33.6976 16.9895 33.8944 17.4529 33.903 17.9387C33.9115 18.4244 33.7312 18.8946 33.4 19.25L27.65 25L33.4 30.75Z" fill="#EB5757"/>
</svg>
