<svg width="64" height="64" viewBox="0 0 64 64" fill="none" xmlns="http://www.w3.org/2000/svg">
<circle cx="32.0003" cy="31.9997" r="21.3333" fill="#08BD80"/>
<mask id="mask0" mask-type="alpha" maskUnits="userSpaceOnUse" x="10" y="10" width="44" height="44">
<circle cx="32.0003" cy="31.9997" r="21.3333" fill="#08BD80"/>
</mask>
<g mask="url(#mask0)">
<g style="mix-blend-mode:soft-light" opacity="0.7">
<circle cx="21.1523" cy="23.1728" r="15.7255" fill="#08BD80"/>
</g>
</g>
<circle cx="51.2" cy="10.6664" r="3.2" fill="#08BD80"/>
<circle cx="55.4671" cy="16.0003" r="1.06667" fill="#44CCFF"/>
<circle cx="7.99967" cy="18.6667" r="2.66667" fill="#44CCFF"/>
<path d="M5.44877 52.7219C6.32285 51.2068 9.01374 48.3421 12.7847 49.0039" stroke="#FF7373" stroke-width="1.06667" stroke-linecap="round" stroke-linejoin="round"/>
<circle cx="58.1332" cy="46.4" r="1.6" fill="#FF7373"/>
<circle cx="23.9997" cy="56.0003" r="2.66667" fill="#F8C162"/>
<path d="M21.8672 33.0669L28.8005 39.4669L43.7339 24.5336" stroke="white" stroke-width="3.2"/>
<path d="M47.334 52.9968L48.4089 55.6631C48.946 56.9954 50.3364 57.7759 51.7535 57.5406V57.5406C53.1706 57.3052 54.561 58.0857 55.0981 59.418L55.5748 60.6003" stroke="#44CCFF" stroke-width="1.06667" stroke-linecap="round" stroke-linejoin="round"/>
<path d="M13.8672 3.19995C14.0786 4.27606 14.3738 6.61666 15.439 7.67995C15.8139 8.05425 17.0108 8.63995 17.6395 8.63995C19.2113 8.63995 19.5256 7.03995 18.8969 6.07995C18.2682 5.11995 16.3821 5.43995 16.0677 7.03995C15.7533 8.63995 16.0677 11.2 18.5826 12.8" stroke="#FFAD3B" stroke-width="1.06667" stroke-linecap="round" stroke-linejoin="round"/>
<circle cx="32" cy="32" r="20" fill="#08BD80"/>
<mask id="mask1" mask-type="alpha" maskUnits="userSpaceOnUse" x="12" y="12" width="40" height="40">
<circle cx="32" cy="32" r="20" fill="#08BD80"/>
</mask>
<g mask="url(#mask1)">
<g style="mix-blend-mode:soft-light" opacity="0.7">
<circle cx="20.7427" cy="14.7427" r="14.7427" fill="white" fill-opacity="0.6"/>
</g>
</g>
<path fill-rule="evenodd" clip-rule="evenodd" d="M43.0733 26.0475L28.3832 41.1048L20.9688 34.0896L23.0306 31.9104L28.299 36.8952L40.926 23.9525L43.0733 26.0475Z" fill="white"/>
<circle cx="54.5" cy="10.5" r="2.5" fill="#2D81F7"/>
<circle cx="11" cy="50" r="2" fill="#08BD80"/>
<circle cx="56.5" cy="33.5" r="1.5" fill="#2D81F7"/>
<circle cx="56.5" cy="48.5" r="1.5" fill="#08BD80"/>
<circle cx="39" cy="8" r="1" fill="#EB5757"/>
<path d="M7.28512 22.8206L8.26844 24.8305C8.45473 25.2113 9.00062 25.2021 9.17389 24.8152L10.3449 22.2005C10.5182 21.8136 10.1616 21.4001 9.75346 21.5147L7.59912 22.1195C7.29849 22.2038 7.1479 22.5401 7.28512 22.8206Z" fill="#EB5757"/>
<path d="M44.2682 56.0476L42.0553 55.7159C41.6361 55.653 41.3338 56.1077 41.5539 56.47L43.0414 58.9185C43.2615 59.2808 43.8043 59.222 43.9417 58.8209L44.6671 56.7042C44.7683 56.4088 44.577 56.0939 44.2682 56.0476Z" fill="#FFAD3B"/>
<path fill-rule="evenodd" clip-rule="evenodd" d="M3.85823 9.64293C4.11244 9.53509 4.40594 9.65376 4.51378 9.90798C4.80251 10.5887 5.39412 11.475 6.20015 11.9637C6.59457 12.2028 7.03304 12.3429 7.51638 12.3291C7.5374 12.3285 7.55858 12.3276 7.57992 12.3264C7.19283 11.5935 7.04212 10.7538 7.25348 9.89103C7.46471 9.02881 8.0106 8.50924 8.67806 8.33791C9.3132 8.17487 9.99542 8.34313 10.4999 8.70613C11.0113 9.07418 11.3934 9.68562 11.3148 10.4307C11.2376 11.1639 10.7287 11.8863 9.77482 12.534C9.60157 12.6517 9.42975 12.7554 9.2595 12.8457C10.0012 13.4922 11.0433 13.9157 12.1574 13.9157C12.4336 13.9157 12.6574 14.1395 12.6574 14.4157C12.6574 14.6918 12.4336 14.9157 12.1574 14.9157C10.6936 14.9157 9.3271 14.3204 8.39455 13.4076C8.33839 13.3526 8.28369 13.2963 8.23053 13.2388C7.99805 13.2928 7.7694 13.3222 7.54498 13.3286C6.83923 13.3488 6.21312 13.1409 5.68175 12.8188C4.6362 12.185 3.9314 11.0959 3.59317 10.2985C3.48534 10.0443 3.60401 9.75076 3.85823 9.64293ZM8.58244 12.0651C8.78324 11.9738 8.99345 11.8558 9.21304 11.7067C10.0389 11.1459 10.2861 10.6512 10.3204 10.3259C10.3534 10.0126 10.2025 9.72414 9.91575 9.51781C9.62202 9.30644 9.24086 9.22586 8.92669 9.30651C8.64483 9.37886 8.35545 9.59549 8.22476 10.129C8.06276 10.7903 8.20317 11.4646 8.58244 12.0651Z" fill="#08BD80"/>
<path fill-rule="evenodd" clip-rule="evenodd" d="M47.8352 51.1007C47.8585 51.3759 48.1005 51.58 48.3757 51.5566C49.1161 51.4937 50.1845 51.5903 51.0049 52.041C51.4035 52.2599 51.7314 52.5553 51.9472 52.9469C51.1359 52.9575 50.3434 53.2029 49.6962 53.7502C49.0357 54.3085 48.8267 55.0079 49.0044 55.6615C49.171 56.2745 49.6549 56.7624 50.2079 57.0141C50.7678 57.2689 51.4754 57.3144 52.0873 56.924C52.6993 56.5335 53.0967 55.7833 53.2091 54.697C53.2281 54.5136 53.237 54.3365 53.2362 54.1657C54.1679 54.4923 55.0397 55.1659 55.5706 56.0769C55.7097 56.3155 56.0158 56.3961 56.2544 56.2571C56.4929 56.118 56.5736 55.8119 56.4346 55.5733C55.7277 54.3605 54.5479 53.5013 53.3084 53.1389C53.2329 53.1168 53.157 53.0965 53.0807 53.0781C53.0162 52.8649 52.9324 52.6652 52.8311 52.4789C52.5064 51.8821 52.0207 51.458 51.4864 51.1645C50.4342 50.5866 49.1479 50.4874 48.291 50.5602C48.0159 50.5836 47.8118 50.8256 47.8352 51.1007ZM52.2282 53.9535C52.242 54.1484 52.2386 54.3613 52.2145 54.594C52.1202 55.5048 51.8125 55.9131 51.5494 56.081C51.2863 56.2489 50.9489 56.2526 50.6221 56.1039C50.2885 55.9521 50.0442 55.6748 49.9694 55.3993C49.9055 55.1644 49.9418 54.852 50.3418 54.5138C50.8449 54.0884 51.5105 53.9048 52.2282 53.9535Z" fill="#EB5757"/>
<path d="M11.1016 32C11.6164 32.8231 12.2667 33.5532 13.0249 34.1595L14.2033 35.1017L12.8369 36.1259C12.1051 36.6744 11.511 37.3857 11.1016 38.2035C10.6921 37.3857 10.098 36.6744 9.36623 36.1259L7.99983 35.1017L9.36623 34.0776C10.098 33.5291 10.6921 32.8178 11.1016 32Z" fill="#2D81F7"/>
<path d="M49.9746 39C50.6343 40.0547 51.4676 40.9903 52.4392 41.7672L53.9492 42.9746L52.1983 44.2869C51.2605 44.9898 50.4992 45.9012 49.9746 46.9491C49.45 45.9012 48.6887 44.9898 47.751 44.2869L46 42.9746L47.7509 41.6622C48.6887 40.9593 49.45 40.0479 49.9746 39Z" fill="#FFAD3B"/>
</svg>
