<svg width="15" height="16" viewBox="0 0 15 16" fill="none" xmlns="http://www.w3.org/2000/svg">
<path d="M7.09091 0.533325C6.72709 0.533325 6.43182 0.822036 6.43182 1.17777V1.94556C3.06323 2.55456 0.5 5.44436 0.5 8.9111C0.5 12.8186 3.75374 16 7.75 16C11.7463 16 15 12.8186 15 8.9111C15 5.44436 12.4368 2.55456 9.06818 1.94556V1.17777C9.06818 0.822036 8.77291 0.533325 8.40909 0.533325H7.09091ZM13.0163 1.81592C12.8852 1.81595 12.757 1.85422 12.6483 1.92583C12.5395 1.99743 12.4551 2.09913 12.4058 2.21791C12.3564 2.33668 12.3444 2.46715 12.3713 2.59263C12.3982 2.7181 12.4628 2.83289 12.5567 2.9223L13.2158 3.56675C13.2766 3.62859 13.3493 3.67797 13.4298 3.71199C13.5103 3.74601 13.5969 3.76398 13.6846 3.76485C13.7723 3.76572 13.8593 3.74948 13.9404 3.71707C14.0216 3.68466 14.0954 3.63674 14.1574 3.57611C14.2194 3.51548 14.2684 3.44337 14.3016 3.36399C14.3347 3.28461 14.3513 3.19956 14.3504 3.11382C14.3495 3.02808 14.3312 2.94338 14.2964 2.86467C14.2616 2.78597 14.2111 2.71484 14.1478 2.65546L13.4887 2.01102C13.4273 1.94928 13.3539 1.90021 13.2727 1.8667C13.1916 1.83319 13.1044 1.81593 13.0163 1.81592ZM7.75 3.1111C11.0339 3.1111 13.6818 5.70022 13.6818 8.9111C13.6818 12.122 11.0339 14.7111 7.75 14.7111C4.46614 14.7111 1.81818 12.122 1.81818 8.9111C1.81818 5.70022 4.46614 3.1111 7.75 3.1111ZM7.7397 4.39118C7.56512 4.39385 7.39876 4.46413 7.27713 4.58661C7.15549 4.70908 7.08852 4.87373 7.09091 5.04444V7.79717C6.89086 7.9101 6.72468 8.07245 6.609 8.26795C6.49333 8.46345 6.43223 8.68524 6.43182 8.9111C6.432 9.13718 6.493 9.35923 6.60868 9.55497C6.72437 9.75071 6.89067 9.91326 7.09091 10.0263V10.8444C7.08967 10.9298 7.10581 11.0146 7.13838 11.0939C7.17095 11.1731 7.2193 11.2452 7.28062 11.3061C7.34195 11.3669 7.41502 11.4152 7.4956 11.4481C7.57618 11.4811 7.66265 11.4981 7.75 11.4981C7.83735 11.4981 7.92382 11.4811 8.0044 11.4481C8.08498 11.4152 8.15805 11.3669 8.21938 11.3061C8.2807 11.2452 8.32905 11.1731 8.36162 11.0939C8.39419 11.0146 8.41033 10.9298 8.40909 10.8444V10.025C8.60914 9.9121 8.77532 9.74976 8.891 9.55426C9.00667 9.35876 9.06777 9.13696 9.06818 8.9111C9.068 8.68503 9.007 8.46298 8.89132 8.26724C8.77563 8.0715 8.60933 7.90895 8.40909 7.79591V5.04444C8.4103 4.95822 8.3938 4.87264 8.36057 4.79276C8.32734 4.71289 8.27806 4.64035 8.21564 4.57944C8.15322 4.51852 8.07894 4.47048 7.99719 4.43814C7.91544 4.4058 7.82788 4.38983 7.7397 4.39118Z" fill="#3C4852"/>
</svg>
