<svg width="37" height="36" viewBox="0 0 37 36" fill="none" xmlns="http://www.w3.org/2000/svg">
<path d="M18.0747 34.0176C27.4779 34.0176 35.1007 26.4064 35.1007 17.0176C35.1007 7.62874 27.4779 0.0175781 18.0747 0.0175781C8.67159 0.0175781 1.04883 7.62874 1.04883 17.0176C1.04883 26.4064 8.67159 34.0176 18.0747 34.0176Z" fill="#FFCB4C"/>
<path d="M14.5928 21.0355C14.4427 20.9173 14.3334 20.755 14.2803 20.5715C14.2469 20.4658 14.2358 20.3542 14.2479 20.2439C14.26 20.1337 14.2949 20.0271 14.3505 19.9311C14.4061 19.835 14.4811 19.7516 14.5708 19.6861C14.6604 19.6206 14.7627 19.5744 14.8712 19.5505C19.4061 18.5295 22.4598 20.9135 22.589 21.0155C22.9736 21.3215 23.0487 21.8605 22.7622 22.2205C22.4758 22.5785 21.933 22.6215 21.5494 22.3175C21.4392 22.2335 19.0226 20.3945 15.358 21.2195C15.2248 21.2479 15.0869 21.2461 14.9545 21.2143C14.8221 21.1824 14.6985 21.1214 14.5928 21.0355Z" fill="#65471B"/>
<path d="M13.1859 13.8296C14.3612 13.8296 15.3141 12.6404 15.3141 11.1736C15.3141 9.70671 14.3612 8.51758 13.1859 8.51758C12.0105 8.51758 11.0576 9.70671 11.0576 11.1736C11.0576 12.6404 12.0105 13.8296 13.1859 13.8296Z" fill="#65471B"/>
<path d="M24.4593 14.8921C25.6347 14.8921 26.5875 13.7029 26.5875 12.2361C26.5875 10.7692 25.6347 9.58008 24.4593 9.58008C23.2839 9.58008 22.3311 10.7692 22.3311 12.2361C22.3311 13.7029 23.2839 14.8921 24.4593 14.8921Z" fill="#65471B"/>
<path d="M17.3495 35.1487C17.3495 35.1487 18.6164 34.7377 18.7806 33.7967C18.9539 32.8247 18.1557 32.6297 18.1557 32.6297C18.1557 32.6297 19.1983 32.4217 19.3295 31.2537C19.4527 30.1527 18.4672 29.8907 18.4672 29.8907C18.4672 29.8907 19.4386 29.4907 19.4847 28.3517C19.5228 27.3927 18.4882 26.9237 18.4882 26.9237C18.4882 26.9237 23.5339 25.7027 24.0527 25.5827C24.5694 25.4627 25.3747 24.9677 25.1233 23.8887C24.8739 22.8087 23.9175 22.7707 23.4237 22.8857C22.9289 23.0007 16.6694 24.4517 14.5101 24.9537L13.0689 25.2877C12.5281 25.4147 12.2827 25.1777 12.6643 24.7757C13.1731 24.2397 13.4986 23.6467 13.6118 22.6627C13.7309 21.6277 13.3794 20.3497 13.1781 19.8537C12.8035 18.9327 12.1716 18.2047 11.4415 17.9547C10.3027 17.5647 9.49349 18.2757 9.89711 19.5157C10.502 21.3697 10.1054 22.8907 9.06284 23.8087C6.6101 25.9657 5.46936 27.5037 6.22852 30.7817C7.05778 34.3567 10.6122 36.6577 14.1926 35.8297L17.3495 35.1487Z" fill="#F19020"/>
<path d="M9.35663 6.3507C9.18803 6.26117 9.05126 6.12182 8.96503 5.9517C8.91284 5.8538 8.88162 5.74613 8.87333 5.63553C8.86504 5.52494 8.87987 5.41383 8.91688 5.30926C8.9539 5.2047 9.01228 5.10895 9.08833 5.02812C9.16437 4.94728 9.25642 4.88312 9.35863 4.8397C13.6311 3.0087 17.0694 4.7967 17.2136 4.8737C17.6472 5.1047 17.8225 5.6207 17.6052 6.0277C17.3889 6.4327 16.8641 6.5737 16.4304 6.3457C16.3072 6.2827 13.5941 4.9137 10.1428 6.3927C10.0169 6.44447 9.88098 6.46756 9.74498 6.4603C9.60898 6.45303 9.47631 6.41559 9.35663 6.3507ZM21.5101 10.1007C21.3484 10 21.2218 9.85193 21.1476 9.6767C21.102 9.5754 21.078 9.46572 21.0772 9.35465C21.0763 9.24359 21.0987 9.13357 21.1428 9.0316C21.1869 8.92963 21.2517 8.83794 21.3333 8.76238C21.4148 8.68681 21.5112 8.62903 21.6163 8.5927C26.004 7.0567 29.313 9.0727 29.4512 9.1597C29.8668 9.4197 30.0071 9.9467 29.7637 10.3377C29.5213 10.7277 28.9865 10.8327 28.5709 10.5757C28.4507 10.5037 25.8397 8.9547 22.2943 10.1967C22.1646 10.2395 22.027 10.2531 21.8914 10.2365C21.7559 10.2199 21.6256 10.1735 21.5101 10.1007Z" fill="#65471B"/>
</svg>
