<svg width="32" height="32" viewBox="0 0 32 32" fill="none" xmlns="http://www.w3.org/2000/svg">
<g clip-path="url(#clip0)">
<path d="M30.5378 15.5016C30.5378 15.0704 30.4349 14.6658 30.2626 14.2981C29.1132 10.5901 23.732 10.861 16.0778 10.6801C14.798 10.6501 15.53 9.13899 15.9792 5.82185C16.2715 3.66442 14.8803 0.351562 12.542 0.351562C8.68661 0.351562 12.3955 3.3927 8.98661 10.9133C7.16518 14.9316 3.09375 12.6807 3.09375 16.717V25.9047C3.09375 27.4758 3.24804 28.9861 5.45775 29.2347C7.59975 29.4756 7.11804 31.0021 10.208 31.0021H25.6743C26.4319 31.0012 27.1581 30.6998 27.6937 30.1641C28.2293 29.6283 28.5305 28.902 28.5312 28.1444C28.5312 27.4913 28.3023 26.8964 27.9329 26.4147C28.8072 25.9253 29.4072 25.0013 29.4072 23.9298C29.4072 23.2784 29.1792 22.6836 28.8106 22.2027C29.6875 21.7141 30.2892 20.7893 30.2892 19.7161C30.2892 18.937 29.9738 18.2307 29.4655 17.7138C29.7986 17.4491 30.068 17.1128 30.2536 16.7298C30.4392 16.3469 30.5363 15.9271 30.5378 15.5016Z" fill="url(#paint0_linear)"/>
<path d="M20.3066 18.3592H27.6815C28.6843 18.3592 29.6255 17.8226 30.1381 16.9595C30.2293 16.7889 30.2512 16.5896 30.1992 16.4033C30.1471 16.2169 30.0251 16.0579 29.8586 15.9593C29.6922 15.8607 29.494 15.8301 29.3056 15.874C29.1172 15.9179 28.953 16.0329 28.8472 16.1949C28.7267 16.397 28.556 16.5645 28.3515 16.6809C28.147 16.7973 27.9159 16.8588 27.6806 16.8592H20.1292C19.3809 16.8592 18.7723 16.2506 18.7723 15.5024C18.7723 14.7541 19.3809 14.1455 20.1292 14.1455H25.1752C25.3741 14.1455 25.5649 14.0665 25.7055 13.9258C25.8462 13.7852 25.9252 13.5944 25.9252 13.3955C25.9252 13.1966 25.8462 13.0058 25.7055 12.8652C25.5649 12.7245 25.3741 12.6455 25.1752 12.6455H20.1283C19.3709 12.6464 18.6448 12.9477 18.1092 13.4833C17.5737 14.0188 17.2724 14.745 17.2715 15.5024C17.2715 16.3809 17.6786 17.1584 18.3043 17.6829C18.0335 17.9479 17.8184 18.2644 17.6715 18.6136C17.5246 18.9629 17.4489 19.338 17.4489 19.7169C17.4489 20.5981 17.8586 21.3781 18.4878 21.9018C18.1906 22.1941 17.9613 22.5482 17.8162 22.9389C17.671 23.3297 17.6136 23.7476 17.6478 24.163C17.6821 24.5785 17.8073 24.9813 18.0145 25.343C18.2217 25.7047 18.5059 26.0164 18.8469 26.2561C18.379 26.7743 18.1189 27.447 18.1166 28.1452C18.1175 28.9026 18.4188 29.6287 18.9544 30.1643C19.49 30.6999 20.2161 31.0012 20.9735 31.0021H25.6741C26.1696 31.0008 26.6563 30.8712 27.0869 30.6261C27.5175 30.381 27.8774 30.0286 28.1315 29.6032C28.2284 29.4325 28.2544 29.2306 28.2041 29.0409C28.1538 28.8511 28.0311 28.6887 27.8624 28.5884C27.6937 28.4881 27.4923 28.4579 27.3016 28.5044C27.1109 28.5509 26.946 28.6703 26.8423 28.8369C26.7215 29.0391 26.5504 29.2066 26.3457 29.3231C26.141 29.4397 25.9096 29.5013 25.6741 29.5021H20.9735C20.2252 29.5021 19.6166 28.8935 19.6166 28.1452C19.6166 27.3969 20.2252 26.7884 20.9735 26.7884H26.5501C27.0456 26.787 27.5324 26.6573 27.963 26.412C28.3937 26.1667 28.7535 25.8142 29.0075 25.3886C29.0602 25.3039 29.0954 25.2096 29.1112 25.111C29.127 25.0125 29.1229 24.9119 29.0993 24.8149C29.0757 24.718 29.033 24.6268 28.9737 24.5466C28.9144 24.4663 28.8396 24.3988 28.7539 24.3478C28.6681 24.2968 28.573 24.2635 28.4742 24.2497C28.3754 24.2359 28.2749 24.242 28.1784 24.2675C28.082 24.2931 27.9916 24.3377 27.9126 24.3986C27.8336 24.4595 27.7676 24.5356 27.7183 24.6224C27.599 24.826 27.4283 24.9946 27.2232 25.1115C27.0182 25.2284 26.7861 25.2894 26.5501 25.2884H20.4961C20.1463 25.2731 19.8159 25.1235 19.5738 24.8706C19.3317 24.6177 19.1966 24.2812 19.1966 23.9311C19.1966 23.581 19.3317 23.2444 19.5738 22.9915C19.8159 22.7387 20.1463 22.589 20.4961 22.5738H27.4312C27.9267 22.5725 28.4134 22.4429 28.844 22.1978C29.2747 21.9527 29.6345 21.6003 29.8886 21.1749C29.9855 21.0042 30.0116 20.8023 29.9613 20.6126C29.911 20.4228 29.7883 20.2604 29.6195 20.1601C29.4508 20.0598 29.2495 20.0297 29.0588 20.0761C28.8681 20.1226 28.7032 20.242 28.5995 20.4086C28.48 20.612 28.3092 20.7805 28.1042 20.8972C27.8991 21.0139 27.6671 21.0748 27.4312 21.0738H20.3066C19.9569 21.0586 19.6265 20.9089 19.3844 20.656C19.1423 20.4032 19.0071 20.0666 19.0071 19.7165C19.0071 19.3664 19.1423 19.0298 19.3844 18.777C19.6265 18.5241 19.9569 18.3744 20.3066 18.3592Z" fill="url(#paint1_linear)"/>
</g>
<defs>
<linearGradient id="paint0_linear" x1="16.8158" y1="0.351562" x2="16.8158" y2="55.8593" gradientUnits="userSpaceOnUse">
<stop stop-color="#FFDB57"/>
<stop offset="1" stop-color="#FFA62F"/>
</linearGradient>
<linearGradient id="paint1_linear" x1="19.4323" y1="19.8601" x2="39.5752" y2="26.7172" gradientUnits="userSpaceOnUse">
<stop stop-color="#EF9645"/>
<stop offset="1" stop-color="#EF9645" stop-opacity="0"/>
</linearGradient>
<clipPath id="clip0">
<rect width="30.8571" height="30.8571" fill="white" transform="translate(0.572266 0.145508)"/>
</clipPath>
</defs>
</svg>
